<mxfile host="app.diagrams.net" modified="2021-10-20T16:17:04.379Z" agent="5.0 (Windows NT 10.0; Win64; x64) AppleWebKit/537.36 (KHTML, like Gecko) Chrome/94.0.4606.81 Safari/537.36" etag="FDFeNkI2uIlVjDeUT8gi" version="15.5.6" type="github">
  <diagram id="pQPA1BdqDqWq5H5T48kf" name="Page-1">
    <mxGraphModel dx="1876" dy="2158" grid="1" gridSize="10" guides="1" tooltips="1" connect="1" arrows="1" fold="1" page="1" pageScale="1" pageWidth="850" pageHeight="1100" math="0" shadow="0">
      <root>
        <mxCell id="0" />
        <mxCell id="1" parent="0" />
        <mxCell id="7b0EaGhRAOcdKMxd3AM4-17" style="edgeStyle=orthogonalEdgeStyle;rounded=0;orthogonalLoop=1;jettySize=auto;html=1;fontSize=24;entryX=0.5;entryY=1;entryDx=0;entryDy=0;" edge="1" parent="1" source="7b0EaGhRAOcdKMxd3AM4-4" target="7b0EaGhRAOcdKMxd3AM4-9">
          <mxGeometry relative="1" as="geometry">
            <mxPoint x="100" y="310" as="targetPoint" />
            <Array as="points">
              <mxPoint x="140" y="230" />
            </Array>
          </mxGeometry>
        </mxCell>
        <mxCell id="7b0EaGhRAOcdKMxd3AM4-19" style="edgeStyle=orthogonalEdgeStyle;rounded=0;orthogonalLoop=1;jettySize=auto;html=1;entryX=0.5;entryY=1;entryDx=0;entryDy=0;fontSize=24;" edge="1" parent="1" source="7b0EaGhRAOcdKMxd3AM4-4" target="7b0EaGhRAOcdKMxd3AM4-10">
          <mxGeometry relative="1" as="geometry">
            <Array as="points">
              <mxPoint x="430" y="280" />
              <mxPoint x="430" y="280" />
            </Array>
          </mxGeometry>
        </mxCell>
        <mxCell id="7b0EaGhRAOcdKMxd3AM4-30" style="edgeStyle=orthogonalEdgeStyle;rounded=0;orthogonalLoop=1;jettySize=auto;html=1;exitX=1;exitY=0.5;exitDx=0;exitDy=0;entryX=0.5;entryY=1;entryDx=0;entryDy=0;fontSize=24;" edge="1" parent="1" source="7b0EaGhRAOcdKMxd3AM4-4" target="7b0EaGhRAOcdKMxd3AM4-11">
          <mxGeometry relative="1" as="geometry">
            <Array as="points">
              <mxPoint x="690" y="230" />
              <mxPoint x="715" y="230" />
            </Array>
          </mxGeometry>
        </mxCell>
        <mxCell id="7b0EaGhRAOcdKMxd3AM4-4" value="&lt;font style=&quot;font-size: 24px&quot;&gt;&lt;b style=&quot;background-color: rgb(255 , 255 , 153)&quot;&gt;Searching Wine details in Google&lt;/b&gt;&lt;/font&gt;" style="rounded=1;whiteSpace=wrap;html=1;fillColor=#f8cecc;strokeColor=#b85450;" vertex="1" parent="1">
          <mxGeometry x="210" y="210" width="480" height="80" as="geometry" />
        </mxCell>
        <mxCell id="7b0EaGhRAOcdKMxd3AM4-23" style="edgeStyle=orthogonalEdgeStyle;rounded=0;orthogonalLoop=1;jettySize=auto;html=1;fontSize=24;entryX=0;entryY=0.408;entryDx=0;entryDy=0;entryPerimeter=0;" edge="1" parent="1" source="7b0EaGhRAOcdKMxd3AM4-9" target="7b0EaGhRAOcdKMxd3AM4-21">
          <mxGeometry relative="1" as="geometry">
            <mxPoint x="100" y="570" as="targetPoint" />
            <Array as="points">
              <mxPoint x="130" y="497" />
            </Array>
          </mxGeometry>
        </mxCell>
        <mxCell id="7b0EaGhRAOcdKMxd3AM4-9" value="winesearcher" style="shape=offPageConnector;whiteSpace=wrap;html=1;labelBackgroundColor=#FFFF99;fontSize=24;direction=west;" vertex="1" parent="1">
          <mxGeometry x="60" y="310" width="160" height="90" as="geometry" />
        </mxCell>
        <mxCell id="7b0EaGhRAOcdKMxd3AM4-24" style="edgeStyle=orthogonalEdgeStyle;rounded=0;orthogonalLoop=1;jettySize=auto;html=1;entryX=0.469;entryY=-0.008;entryDx=0;entryDy=0;entryPerimeter=0;fontSize=24;" edge="1" parent="1" source="7b0EaGhRAOcdKMxd3AM4-10" target="7b0EaGhRAOcdKMxd3AM4-21">
          <mxGeometry relative="1" as="geometry">
            <Array as="points">
              <mxPoint x="425" y="549" />
            </Array>
          </mxGeometry>
        </mxCell>
        <mxCell id="7b0EaGhRAOcdKMxd3AM4-10" value="vivino" style="shape=offPageConnector;whiteSpace=wrap;html=1;labelBackgroundColor=#FFFF99;fontSize=24;direction=west;" vertex="1" parent="1">
          <mxGeometry x="350" y="320" width="150" height="90" as="geometry" />
        </mxCell>
        <mxCell id="7b0EaGhRAOcdKMxd3AM4-25" style="edgeStyle=orthogonalEdgeStyle;rounded=0;orthogonalLoop=1;jettySize=auto;html=1;fontSize=24;entryX=1.006;entryY=0.415;entryDx=0;entryDy=0;entryPerimeter=0;" edge="1" parent="1" source="7b0EaGhRAOcdKMxd3AM4-11" target="7b0EaGhRAOcdKMxd3AM4-21">
          <mxGeometry relative="1" as="geometry">
            <mxPoint x="730" y="600" as="targetPoint" />
            <Array as="points">
              <mxPoint x="715" y="497" />
            </Array>
          </mxGeometry>
        </mxCell>
        <mxCell id="7b0EaGhRAOcdKMxd3AM4-11" value="cellartracker" style="shape=offPageConnector;whiteSpace=wrap;html=1;labelBackgroundColor=#FFFF99;fontSize=24;direction=west;" vertex="1" parent="1">
          <mxGeometry x="650" y="310" width="130" height="110" as="geometry" />
        </mxCell>
        <mxCell id="7b0EaGhRAOcdKMxd3AM4-21" value="&lt;span style=&quot;background-color: rgb(255 , 153 , 255)&quot;&gt;Websites to search&lt;/span&gt;" style="ellipse;whiteSpace=wrap;html=1;labelBackgroundColor=#FFFF99;fontSize=24;" vertex="1" parent="1">
          <mxGeometry x="270" y="480" width="320" height="90" as="geometry" />
        </mxCell>
        <mxCell id="7b0EaGhRAOcdKMxd3AM4-41" style="edgeStyle=orthogonalEdgeStyle;rounded=0;orthogonalLoop=1;jettySize=auto;html=1;exitX=0.5;exitY=1;exitDx=0;exitDy=0;entryX=0.5;entryY=0;entryDx=0;entryDy=0;fontSize=24;" edge="1" parent="1" source="7b0EaGhRAOcdKMxd3AM4-37" target="7b0EaGhRAOcdKMxd3AM4-38">
          <mxGeometry relative="1" as="geometry" />
        </mxCell>
        <mxCell id="7b0EaGhRAOcdKMxd3AM4-37" value="&lt;span style=&quot;background-color: rgb(153 , 255 , 153)&quot;&gt;Read the Data from PDF or Image&lt;/span&gt;" style="rounded=0;whiteSpace=wrap;html=1;labelBackgroundColor=#FF99FF;fontSize=24;" vertex="1" parent="1">
          <mxGeometry x="190" y="-480" width="480" height="60" as="geometry" />
        </mxCell>
        <mxCell id="7b0EaGhRAOcdKMxd3AM4-42" style="edgeStyle=orthogonalEdgeStyle;rounded=0;orthogonalLoop=1;jettySize=auto;html=1;exitX=0.5;exitY=1;exitDx=0;exitDy=0;entryX=0.5;entryY=0;entryDx=0;entryDy=0;fontSize=24;" edge="1" parent="1" source="7b0EaGhRAOcdKMxd3AM4-38" target="7b0EaGhRAOcdKMxd3AM4-40">
          <mxGeometry relative="1" as="geometry" />
        </mxCell>
        <mxCell id="7b0EaGhRAOcdKMxd3AM4-38" value="&lt;span style=&quot;background-color: rgb(153 , 255 , 153)&quot;&gt;get the Wine menu data from PDF of Image&lt;/span&gt;" style="rounded=0;whiteSpace=wrap;html=1;labelBackgroundColor=#FF99FF;fontSize=24;" vertex="1" parent="1">
          <mxGeometry x="190" y="-390" width="480" height="60" as="geometry" />
        </mxCell>
        <mxCell id="7b0EaGhRAOcdKMxd3AM4-56" style="edgeStyle=orthogonalEdgeStyle;rounded=0;orthogonalLoop=1;jettySize=auto;html=1;exitX=0.5;exitY=1;exitDx=0;exitDy=0;fontSize=24;fontColor=none;" edge="1" parent="1" source="7b0EaGhRAOcdKMxd3AM4-40" target="7b0EaGhRAOcdKMxd3AM4-55">
          <mxGeometry relative="1" as="geometry">
            <Array as="points">
              <mxPoint x="431" y="-230" />
              <mxPoint x="431" y="-230" />
            </Array>
          </mxGeometry>
        </mxCell>
        <mxCell id="7b0EaGhRAOcdKMxd3AM4-40" value="Store the data in document or excel sheet" style="rounded=0;whiteSpace=wrap;html=1;labelBackgroundColor=#99FF99;fontSize=24;" vertex="1" parent="1">
          <mxGeometry x="191" y="-310" width="480" height="50" as="geometry" />
        </mxCell>
        <mxCell id="7b0EaGhRAOcdKMxd3AM4-52" style="edgeStyle=orthogonalEdgeStyle;rounded=0;orthogonalLoop=1;jettySize=auto;html=1;fontSize=24;fontColor=none;" edge="1" parent="1" source="7b0EaGhRAOcdKMxd3AM4-49" target="7b0EaGhRAOcdKMxd3AM4-50">
          <mxGeometry relative="1" as="geometry" />
        </mxCell>
        <mxCell id="7b0EaGhRAOcdKMxd3AM4-49" value="&lt;p class=&quot;MsoNormal&quot;&gt;&lt;span style=&quot;background-color: rgb(204 , 229 , 255)&quot;&gt;&lt;span style=&quot;font-size: 18pt ; line-height: 107% ; font-family: &amp;#34;helvetica&amp;#34; , sans-serif&quot;&gt;Master Database checks either&amp;nbsp;&lt;/span&gt;&lt;span style=&quot;font-family: &amp;#34;helvetica&amp;#34; , sans-serif ; font-size: 18pt&quot;&gt;searching &lt;/span&gt;&lt;span style=&quot;font-family: &amp;#34;helvetica&amp;#34; , sans-serif ; font-size: 18pt&quot;&gt;wine is found or not found&lt;/span&gt;&lt;/span&gt;&lt;/p&gt;" style="ellipse;whiteSpace=wrap;html=1;labelBackgroundColor=#FFFFFF;fontSize=24;fontColor=none;" vertex="1" parent="1">
          <mxGeometry x="10" y="-110" width="830" height="160" as="geometry" />
        </mxCell>
        <mxCell id="7b0EaGhRAOcdKMxd3AM4-54" style="edgeStyle=orthogonalEdgeStyle;rounded=0;orthogonalLoop=1;jettySize=auto;html=1;fontSize=24;fontColor=none;" edge="1" parent="1" source="7b0EaGhRAOcdKMxd3AM4-50" target="7b0EaGhRAOcdKMxd3AM4-4">
          <mxGeometry relative="1" as="geometry">
            <Array as="points">
              <mxPoint x="425" y="180" />
              <mxPoint x="425" y="180" />
            </Array>
          </mxGeometry>
        </mxCell>
        <mxCell id="7b0EaGhRAOcdKMxd3AM4-50" value="&lt;span style=&quot;background-color: rgb(255 , 153 , 153)&quot;&gt;Not found&lt;/span&gt;" style="triangle;whiteSpace=wrap;html=1;labelBackgroundColor=#FFFFFF;fontSize=24;fontColor=none;direction=south;" vertex="1" parent="1">
          <mxGeometry x="270" y="90" width="310" height="90" as="geometry" />
        </mxCell>
        <mxCell id="7b0EaGhRAOcdKMxd3AM4-57" style="edgeStyle=orthogonalEdgeStyle;rounded=0;orthogonalLoop=1;jettySize=auto;html=1;exitX=0.5;exitY=1;exitDx=0;exitDy=0;fontSize=24;fontColor=none;" edge="1" parent="1" source="7b0EaGhRAOcdKMxd3AM4-55" target="7b0EaGhRAOcdKMxd3AM4-49">
          <mxGeometry relative="1" as="geometry">
            <Array as="points">
              <mxPoint x="445" y="-120" />
              <mxPoint x="445" y="-120" />
            </Array>
          </mxGeometry>
        </mxCell>
        <mxCell id="7b0EaGhRAOcdKMxd3AM4-55" value="&lt;span style=&quot;background-color: rgb(204 , 153 , 255)&quot;&gt;Input coming after extraction using OCR&lt;/span&gt;" style="ellipse;whiteSpace=wrap;html=1;labelBackgroundColor=#CCE5FF;fontSize=24;fontColor=none;" vertex="1" parent="1">
          <mxGeometry x="180" y="-220" width="530" height="70" as="geometry" />
        </mxCell>
      </root>
    </mxGraphModel>
  </diagram>
</mxfile>
